<svg width="238" height="81" viewBox="0 0 238 81" fill="none" xmlns="http://www.w3.org/2000/svg">
<path d="M80.1808 34.6914V10.4752H87.9992C90.8129 10.4752 93.1307 10.971 94.9527 11.9628C96.7978 12.9545 98.1585 14.3613 99.0349 16.1833C99.9343 17.9822 100.384 20.1271 100.384 22.6179C100.384 25.0626 99.9343 27.1959 99.0349 29.0179C98.1585 30.8168 96.7978 32.2121 94.9527 33.2038C93.1307 34.1956 90.8129 34.6914 87.9992 34.6914H80.1808ZM84.3322 31.1628H87.7916C89.8904 31.1628 91.5394 30.8283 92.7387 30.1595C93.961 29.4676 94.8259 28.4874 95.3333 27.219C95.8637 25.9274 96.1289 24.3937 96.1289 22.6179C96.1289 20.819 95.8637 19.2853 95.3333 18.0168C94.8259 16.7253 93.961 15.7336 92.7387 15.0417C91.5394 14.3267 89.8904 13.9692 87.7916 13.9692H84.3322V31.1628ZM115.473 35.1065C113.144 35.1065 111.08 34.5876 109.281 33.5498C107.505 32.4889 106.11 31.0244 105.095 29.1563C104.08 27.2651 103.573 25.0741 103.573 22.5833C103.573 20.1155 104.08 17.9476 105.095 16.0795C106.11 14.1883 107.505 12.7123 109.281 11.6514C111.08 10.5905 113.144 10.0601 115.473 10.0601C117.849 10.0601 119.936 10.5905 121.735 11.6514C123.534 12.7123 124.929 14.1883 125.921 16.0795C126.913 17.9476 127.408 20.1155 127.408 22.5833C127.408 25.0741 126.913 27.2651 125.921 29.1563C124.929 31.0244 123.534 32.4889 121.735 33.5498C119.936 34.5876 117.849 35.1065 115.473 35.1065ZM115.508 31.3703C117.053 31.3703 118.402 31.0244 119.555 30.3325C120.709 29.6175 121.597 28.6028 122.219 27.2882C122.842 25.9736 123.153 24.4053 123.153 22.5833C123.153 20.7613 122.842 19.193 122.219 17.8784C121.597 16.5638 120.709 15.5606 119.555 14.8687C118.402 14.1537 117.053 13.7963 115.508 13.7963C113.963 13.7963 112.613 14.1537 111.46 14.8687C110.307 15.5606 109.408 16.5638 108.762 17.8784C108.139 19.193 107.828 20.7613 107.828 22.5833C107.828 24.4053 108.139 25.9736 108.762 27.2882C109.408 28.6028 110.307 29.6175 111.46 30.3325C112.613 31.0244 113.963 31.3703 115.508 31.3703ZM139.594 35.1065C137.842 35.1065 136.285 34.7952 134.924 34.1725C133.563 33.5498 132.502 32.6619 131.741 31.5087C130.98 30.3555 130.588 28.9833 130.565 27.3919H134.959C134.959 28.1992 135.143 28.9256 135.512 29.5714C135.904 30.1941 136.435 30.69 137.104 31.059C137.795 31.428 138.626 31.6125 139.594 31.6125C140.425 31.6125 141.14 31.4856 141.739 31.2319C142.362 30.9552 142.835 30.5746 143.158 30.0903C143.504 29.5829 143.677 28.9948 143.677 28.326C143.677 27.5649 143.492 26.9422 143.123 26.4579C142.777 25.9505 142.293 25.5238 141.67 25.1779C141.047 24.8319 140.332 24.5321 139.525 24.2784C138.718 24.0017 137.865 23.7134 136.965 23.4136C135.051 22.7678 133.609 21.9491 132.641 20.9573C131.672 19.9426 131.188 18.5934 131.188 16.9098C131.188 15.5029 131.522 14.2921 132.191 13.2773C132.86 12.2626 133.794 11.4784 134.993 10.9249C136.216 10.3483 137.622 10.0601 139.214 10.0601C140.828 10.0601 142.235 10.3483 143.434 10.9249C144.657 11.5015 145.614 12.3087 146.306 13.3465C147.021 14.3613 147.39 15.5837 147.413 17.0136H142.985C142.962 16.4139 142.8 15.8604 142.5 15.353C142.2 14.8226 141.762 14.3959 141.186 14.073C140.632 13.7271 139.952 13.5541 139.145 13.5541C138.453 13.531 137.83 13.6464 137.277 13.9001C136.746 14.1307 136.319 14.4766 135.997 14.9379C135.697 15.3761 135.547 15.9296 135.547 16.5984C135.547 17.2442 135.685 17.7862 135.962 18.2244C136.262 18.6395 136.688 18.997 137.242 19.2968C137.795 19.5736 138.441 19.8388 139.179 20.0925C139.917 20.3462 140.724 20.6229 141.601 20.9228C142.8 21.3148 143.884 21.7992 144.853 22.3757C145.844 22.9292 146.629 23.6557 147.205 24.5552C147.782 25.4546 148.07 26.6193 148.07 28.0492C148.07 29.2946 147.747 30.4593 147.101 31.5433C146.456 32.6042 145.51 33.4691 144.265 34.1379C143.019 34.7837 141.462 35.1065 139.594 35.1065ZM152.107 34.6914V10.4752H167.743V13.8309H156.258V20.7844H166.705V24.0709H156.258V31.3357H167.743V34.6914H152.107Z" fill="#1A1A1A"/>
<path d="M103.117 69.2861V48.4256H95.9906V45.0699H114.36V48.4256H107.234V69.2861H103.117ZM113.59 69.2861L122.446 45.0699H127.081L135.938 69.2861H131.544L124.729 49.9132L117.914 69.2861H113.59ZM117.533 63.578L118.64 60.2915H130.575L131.683 63.578H117.533ZM147.715 69.2861V45.0699H155.533C158.347 45.0699 160.665 45.5658 162.487 46.5575C164.332 47.5492 165.692 48.956 166.569 50.778C167.468 52.5769 167.918 54.7218 167.918 57.2126C167.918 59.6573 167.468 61.7906 166.569 63.6126C165.692 65.4115 164.332 66.8069 162.487 67.7986C160.665 68.7903 158.347 69.2861 155.533 69.2861H147.715ZM151.866 65.7575H155.325C157.424 65.7575 159.073 65.4231 160.273 64.7542C161.495 64.0623 162.36 63.0822 162.867 61.8137C163.398 60.5222 163.663 58.9885 163.663 57.2126C163.663 55.4137 163.398 53.88 162.867 52.6115C162.36 51.32 161.495 50.3283 160.273 49.6364C159.073 48.9214 157.424 48.564 155.325 48.564H151.866V65.7575ZM183.007 69.7013C180.678 69.7013 178.614 69.1823 176.815 68.1445C175.039 67.0836 173.644 65.6191 172.629 63.751C171.614 61.8598 171.107 59.6688 171.107 57.178C171.107 54.7103 171.614 52.5423 172.629 50.6742C173.644 48.7831 175.039 47.307 176.815 46.2461C178.614 45.1852 180.678 44.6548 183.007 44.6548C185.383 44.6548 187.47 45.1852 189.269 46.2461C191.068 47.307 192.463 48.7831 193.455 50.6742C194.446 52.5423 194.942 54.7103 194.942 57.178C194.942 59.6688 194.446 61.8598 193.455 63.751C192.463 65.6191 191.068 67.0836 189.269 68.1445C187.47 69.1823 185.383 69.7013 183.007 69.7013ZM183.042 65.9651C184.587 65.9651 185.936 65.6191 187.089 64.9272C188.242 64.2123 189.13 63.1975 189.753 61.8829C190.376 60.5683 190.687 59 190.687 57.178C190.687 55.356 190.376 53.7878 189.753 52.4732C189.13 51.1586 188.242 50.1553 187.089 49.4634C185.936 48.7485 184.587 48.391 183.042 48.391C181.496 48.391 180.147 48.7485 178.994 49.4634C177.841 50.1553 176.942 51.1586 176.296 52.4732C175.673 53.7878 175.362 55.356 175.362 57.178C175.362 59 175.673 60.5683 176.296 61.8829C176.942 63.1975 177.841 64.2123 178.994 64.9272C180.147 65.6191 181.496 65.9651 183.042 65.9651ZM207.128 69.7013C205.375 69.7013 203.819 69.3899 202.458 68.7672C201.097 68.1445 200.036 67.2566 199.275 66.1034C198.514 64.9503 198.122 63.578 198.099 61.9867H202.493C202.493 62.7939 202.677 63.5204 203.046 64.1661C203.438 64.7888 203.969 65.2847 204.637 65.6537C205.329 66.0227 206.16 66.2072 207.128 66.2072C207.958 66.2072 208.673 66.0804 209.273 65.8267C209.896 65.5499 210.369 65.1694 210.691 64.6851C211.037 64.1777 211.21 63.5896 211.21 62.9207C211.21 62.1596 211.026 61.5369 210.657 61.0526C210.311 60.5452 209.827 60.1186 209.204 59.7726C208.581 59.4267 207.866 59.1269 207.059 58.8732C206.252 58.5964 205.398 58.3081 204.499 58.0083C202.585 57.3625 201.143 56.5438 200.175 55.5521C199.206 54.5373 198.722 53.1881 198.722 51.5045C198.722 50.0977 199.056 48.8868 199.725 47.8721C200.394 46.8573 201.328 46.0732 202.527 45.5196C203.749 44.9431 205.156 44.6548 206.748 44.6548C208.362 44.6548 209.769 44.9431 210.968 45.5196C212.191 46.0962 213.148 46.9034 213.84 47.9413C214.555 48.956 214.924 50.1784 214.947 51.6083H210.518C210.495 51.0087 210.334 50.4551 210.034 49.9478C209.734 49.4173 209.296 48.9906 208.72 48.6678C208.166 48.3218 207.486 48.1488 206.678 48.1488C205.987 48.1258 205.364 48.2411 204.81 48.4948C204.28 48.7254 203.853 49.0714 203.53 49.5326C203.231 49.9708 203.081 50.5243 203.081 51.1932C203.081 51.8389 203.219 52.3809 203.496 52.8191C203.796 53.2342 204.222 53.5917 204.776 53.8915C205.329 54.1683 205.975 54.4335 206.713 54.6872C207.451 54.9409 208.258 55.2177 209.135 55.5175C210.334 55.9096 211.418 56.3939 212.387 56.9705C213.378 57.524 214.162 58.2505 214.739 59.1499C215.316 60.0494 215.604 61.2141 215.604 62.644C215.604 63.8894 215.281 65.0541 214.635 66.138C213.989 67.1989 213.044 68.0638 211.798 68.7326C210.553 69.3784 208.996 69.7013 207.128 69.7013ZM219.64 69.2861V45.0699H235.277V48.4256H223.792V55.3791H234.239V58.6656H223.792V65.9305H235.277V69.2861H219.64Z" fill="#1A1A1A"/>
<g clip-path="url(#clip0_254_620)">
<path d="M53.2738 33.9462C53.2738 43.8588 43.5566 51.8945 31.5698 51.8945C19.5831 51.8945 9.86585 43.8588 9.86585 33.9462C9.86585 24.0337 19.5831 15.998 31.5698 15.998C43.5566 15.998 53.2738 24.0337 53.2738 33.9462Z" fill="white"/>
<path d="M50.4119 54.4121V39.0386C47.7208 39.0388 48.2593 42.1135 39.6436 44.1633C28.8739 46.7255 23.4891 33.9143 12.7195 31.352C4.10375 29.3022 3.74342 41.6008 4.64089 46.7254L12.7181 59.5366L34.2574 64.6611L50.4119 54.4121Z" fill="#FAD13E"/>
<path d="M29.9135 70.2569C24.1122 70.2569 18.9715 69.027 14.4913 66.5672C10.0686 64.0528 6.59357 60.5818 4.06629 56.1542C1.53902 51.672 0.275391 46.4791 0.275391 40.5757C0.275391 34.7269 1.53902 29.5887 4.06629 25.1612C6.59357 20.6789 10.0686 17.1806 14.4913 14.6662C18.9715 12.1517 24.1122 10.8945 29.9135 10.8945C35.8296 10.8945 41.0278 12.1517 45.5079 14.6662C49.9881 17.1806 53.4631 20.6789 55.9329 25.1612C58.4028 29.5887 59.6377 34.7269 59.6377 40.5757C59.6377 46.4791 58.4028 51.672 55.9329 56.1542C53.4631 60.5818 49.9881 64.0528 45.5079 66.5672C41.0278 69.027 35.8296 70.2569 29.9135 70.2569ZM29.9996 61.4017C33.848 61.4017 37.2081 60.5818 40.08 58.9419C42.9519 57.2474 45.1633 54.8423 46.7141 51.7266C48.265 48.6109 49.0404 44.8939 49.0404 40.5757C49.0404 36.2574 48.265 32.5405 46.7141 29.4248C45.1633 26.3091 42.9519 23.9313 40.08 22.2914C37.2081 20.5969 33.848 19.7497 29.9996 19.7497C26.1513 19.7497 22.7911 20.5969 19.9192 22.2914C17.0473 23.9313 14.8072 26.3091 13.199 29.4248C11.6481 32.5405 10.8727 36.2574 10.8727 40.5757C10.8727 44.8939 11.6481 48.6109 13.199 51.7266C14.8072 54.8423 17.0473 57.2474 19.9192 58.9419C22.7911 60.5818 26.1513 61.4017 29.9996 61.4017Z" fill="#1A1A1A"/>
</g>
<defs>
<clipPath id="clip0_254_620">
<rect width="59.3623" height="59.3623" fill="white" transform="translate(0.275391 10.8945)"/>
</clipPath>
</defs>
</svg>
