<svg width="135" height="127" viewBox="0 0 135 127" fill="none" xmlns="http://www.w3.org/2000/svg">
<path d="M11.4068 40.4858C11.6005 40.9376 11.8651 41.3704 12.178 41.7827C13.613 43.6738 12.8108 46.3703 10.5188 46.9886C3.95682 48.7588 0.882966 53.8624 0.685059 56.6992C0.685059 61.2474 3.20462 65.3598 6.26926 68.7205C10.4747 73.3322 13.0786 78.9109 14.0219 81.8038C15.5037 87.2954 19.4089 100.946 23.1746 111.615C26.9403 122.285 33.4605 125.475 36.2499 125.737H47.3199C47.4363 125.737 47.5087 125.735 47.6236 125.717C50.4868 125.25 88.9012 118.279 106.045 115.302C110.541 114.521 117.194 112.037 121.756 111.987C122.91 111.974 124.068 111.997 125.129 112.036C126.283 112.078 127.254 111.164 127.254 110.01C127.254 109.693 127.155 109.384 126.987 109.116C125.622 106.946 125.239 104.839 125.198 102.992C125.122 99.5055 125.55 95.9981 125.799 92.5196L129.926 34.9408C130.385 28.5491 134.204 22.1444 134.315 15.7373C134.32 15.4033 134.32 15.0847 134.316 14.7863C134.298 13.2705 134.315 11.7344 134.315 10.2185V8.56809C134.315 7.36156 134.235 6.12201 133.66 5.0612C132.621 3.14446 130.864 2.00505 129.404 1.36583C128.19 0.834438 126.85 0.736816 125.525 0.736816H107.505C106.426 0.736816 105.397 1.23807 104.411 1.67783C103.931 1.89204 103.328 2.07753 102.601 2.14803C100.624 2.3397 98.1963 1.16685 96.2181 0.993676C94.945 0.882232 93.269 0.736816 91.9911 0.736816H75.7374C73.9906 0.736816 72.8327 1.24022 72.1123 1.90062C71.4641 2.49488 70.7094 3.09037 69.83 3.09037C68.972 3.09037 68.2453 2.51692 67.6233 1.92592C66.2926 0.661519 64.1708 0.807226 63.1851 0.736816H57.1655C56.1369 0.736816 54.9038 0.955223 54.6589 1.95424C54.5645 2.33923 54.308 2.63804 53.9268 2.74694L53.4448 2.88465C52.9742 3.01911 52.4754 3.01911 52.0048 2.88465L51.5268 2.74809C51.1524 2.64111 50.9284 2.27873 50.7554 1.92984C50.3881 1.1889 49.3685 1.00153 48.6284 0.827328C48.3954 0.772489 48.1576 0.736816 47.9182 0.736816H40.6955C39.1723 0.736816 38.8968 1.24512 38.7586 1.85799C38.6585 2.30221 38.3464 2.65304 37.9144 2.79704C37.3412 2.98813 36.7235 3.00155 36.1425 2.83554L35.4542 2.63889C35.2926 2.59271 35.1549 2.48827 35.0507 2.35639C33.7433 0.701729 31.2507 0.907752 30.4968 0.823985L17.748 0.738993C17.5313 0.737548 17.3141 0.762987 17.1067 0.82592C13.5121 1.91668 11.8831 4.95825 11.4555 6.55326C11.4201 6.68522 11.4035 6.81497 11.3964 6.9514C10.8742 17.0495 10.1599 37.5762 11.4068 40.4858Z" fill="white" stroke="white" stroke-width="0.819814"/>
<path d="M77.1193 72.3876H65.429V41.3901H77.1193C97.3153 41.4758 97.3153 72.302 77.1193 72.3876ZM73.3557 65.1704H77.1193C86.9951 65.1704 86.9951 48.6074 77.1193 48.6074H73.3557V65.1704Z" fill="#6EB4E7"/>
<path d="M115.061 61.937V41.3862C117.585 41.3862 120.243 41.3862 122.722 41.3862V62.0675C122.722 68.8892 116.745 72.8281 110.367 72.8281C104.035 72.8281 98.0532 68.8852 98.0532 62.0675V41.3903C100.532 41.3903 103.146 41.3903 105.625 41.3903V61.9411C105.625 64.4651 108.064 65.7047 110.363 65.7047C112.671 65.7006 115.061 64.461 115.061 61.937Z" fill="#6EB4E7"/>
<path d="M41.5499 91.2621C45.4066 90.9054 48.2032 87.0498 47.7963 82.6504C47.3893 78.2511 43.933 74.9739 40.0762 75.3306C36.2195 75.6874 33.4229 79.5429 33.8298 83.9423C34.2368 88.3416 37.6931 91.6188 41.5499 91.2621Z" fill="black"/>
<path d="M76.4304 113.933L76.3488 114.936L91.5009 112.404L91.0973 111.483C89.8944 111.683 88.5203 111.336 87.5457 105.982L82.616 79.4455C81.6333 74.0917 82.8769 73.635 84.0757 73.4352V72.4443L68.6056 75.0295V76.0203C69.8084 75.8205 70.942 76.2079 69.682 81.9369L63.4108 110.015C62.1467 115.748 60.7196 116.563 59.5167 116.763L59.113 117.819L68.4139 116.266V115.275C67.2926 115.462 66.0775 115.087 67.4108 109.265L67.7819 107.552L77.4783 105.933L77.7515 107.54C78.7423 112.971 77.5517 113.75 76.4304 113.933ZM68.7238 103.36L73.2743 83.2335L76.7402 102.019L68.7238 103.36Z" fill="black"/>
<path d="M121.907 67.1154L122.148 66.0879L112.847 67.6414L113.014 68.6037C114.217 68.3999 115.509 68.7546 115.444 74.2878L115.293 94.0884L108.578 73.1339C107.155 69.0808 104.671 69.0033 103.55 69.195L94.2491 70.7485L94.4163 71.7108C95.6192 71.5069 96.9117 71.8698 96.9281 77.3827L96.6752 104.458C96.5285 110.003 95.2603 110.786 94.0575 110.994L93.8984 112.005L103.199 110.452L103.04 109.493C101.837 109.693 100.545 109.334 100.59 103.72L100.81 80.8567L107.876 102.916C109.556 108.07 110.898 109.167 118.829 107.838L121.797 107.34L121.556 106.39C120.435 106.582 119.138 106.223 119.106 100.625L119.383 73.7129C119.518 68.09 120.786 67.2989 121.907 67.1154Z" fill="black"/>
<path d="M122.148 66.0839L121.907 67.1114C120.786 67.299 119.518 68.0859 119.383 73.7089L119.106 100.621C119.134 105.567 120.15 106.423 121.161 106.423C121.295 106.423 121.426 106.407 121.56 106.386L121.801 107.336L118.833 107.834C116.831 108.168 115.248 108.352 113.972 108.352C110.2 108.352 109.132 106.765 107.876 102.912L100.81 80.8527L100.59 103.715C100.549 108.662 101.548 109.526 102.608 109.526C102.751 109.526 102.898 109.51 103.04 109.485L103.199 110.443L93.8985 111.997L94.0575 110.986C95.2604 110.782 96.5285 109.995 96.6753 104.449L96.9281 77.3746C96.9158 72.5305 95.9168 71.6619 94.8567 71.6619C94.7099 71.6619 94.5631 71.6782 94.4163 71.7027L94.2491 70.7404L103.55 69.1869C103.738 69.1543 103.962 69.1298 104.211 69.1298C105.466 69.1298 107.391 69.7455 108.578 73.1258L115.293 94.0803L115.444 74.2797C115.501 69.4193 114.51 68.5508 113.454 68.5508C113.308 68.5508 113.161 68.5671 113.014 68.5916L112.847 67.6293L122.148 66.0839ZM122.148 64.7546C122.131 64.7546 122.115 64.7546 122.099 64.7546C122.033 64.7587 121.968 64.7627 121.903 64.775L112.631 66.3244C112.28 66.3815 111.97 66.5772 111.766 66.8668C111.562 67.1563 111.481 67.511 111.542 67.8617L111.709 68.824C111.819 69.4723 112.382 69.9249 113.018 69.9249C113.091 69.9249 113.169 69.9168 113.242 69.9045C113.332 69.8882 113.401 69.8801 113.458 69.8801C113.499 69.8801 113.516 69.8841 113.516 69.8841C113.507 69.8841 114.164 70.4387 114.119 74.2634L114.029 85.7784L109.842 72.718C109.838 72.7058 109.833 72.6936 109.829 72.6854C108.337 68.4366 105.666 67.8005 104.211 67.8005C103.917 67.8005 103.615 67.825 103.326 67.878L94.033 69.4315C93.6823 69.4886 93.3725 69.6843 93.1686 69.9738C92.9647 70.2633 92.8831 70.6181 92.9443 70.9688L93.1115 71.9311C93.2216 72.5794 93.7843 73.032 94.4204 73.032C94.4938 73.032 94.5712 73.0238 94.6446 73.0116C94.7303 72.9953 94.8037 72.9871 94.8608 72.9871C94.9056 72.9871 94.9219 72.9912 94.9219 72.9912C94.9178 72.9912 95.5947 73.5131 95.6029 77.3746L95.3501 104.433C95.2196 109.436 94.1798 109.612 93.8373 109.673C93.2746 109.771 92.8383 110.211 92.7486 110.774L92.5896 111.785C92.5243 112.205 92.663 112.633 92.9647 112.935C93.2175 113.184 93.5519 113.318 93.8985 113.318C93.9718 113.318 94.0452 113.314 94.1186 113.302L103.42 111.748C104.141 111.626 104.631 110.945 104.512 110.219L104.353 109.261C104.243 108.613 103.68 108.152 103.044 108.152C102.971 108.152 102.898 108.156 102.824 108.168C102.739 108.184 102.665 108.189 102.612 108.189C102.571 108.189 102.555 108.184 102.551 108.184C102.559 108.184 101.886 107.63 101.919 103.715L102.058 89.0975L106.612 103.308C107.827 107.035 109.067 109.669 113.972 109.669C115.261 109.669 116.871 109.497 119.049 109.135L122.017 108.637C122.384 108.576 122.706 108.364 122.91 108.054C123.114 107.744 123.175 107.361 123.085 107.002L122.845 106.052C122.694 105.453 122.156 105.049 121.556 105.049C121.483 105.049 121.406 105.057 121.332 105.069C121.263 105.081 121.202 105.086 121.161 105.086C121.136 105.086 121.128 105.086 121.124 105.081C121.136 105.081 120.46 104.502 120.435 100.6L120.712 73.7089C120.765 71.3969 121.055 68.5875 122.123 68.4081C122.653 68.3184 123.077 67.9228 123.2 67.3968L123.424 66.4345C123.457 66.3163 123.477 66.194 123.477 66.0676C123.477 65.3377 122.886 64.7424 122.156 64.7383C122.152 64.7546 122.152 64.7546 122.148 64.7546Z" fill="white"/>
<path d="M81.6494 48.4198L81.6575 50.1487C81.6657 51.6818 80.4261 52.9295 78.8848 52.9377L75.586 52.9581C75.3618 52.9581 75.1457 52.9336 74.9377 52.8806C74.8969 52.8684 74.8602 52.8684 74.8195 52.8725C74.4321 52.9377 73.1558 53.1946 71.9122 53.9856C71.6594 54.1487 71.3209 54.0876 71.1415 53.847L70.3749 52.8235C70.0814 52.4321 70.1548 52.0488 70.4361 51.8653C71.2842 51.3148 72.1364 50.956 72.8541 50.7154C72.8133 50.5442 72.797 50.3688 72.797 50.1935L72.7889 48.4606C72.7807 46.748 74.163 45.3535 75.8756 45.3494L78.5341 45.3331C80.2467 45.3209 81.6453 46.7072 81.6494 48.4198Z" fill="black"/>
<path d="M78.5464 45.3293C80.2549 45.3293 81.6453 46.7116 81.6494 48.4201L81.6575 50.1489C81.6657 51.6821 80.4261 52.9298 78.8848 52.938L75.5861 52.9584C75.582 52.9584 75.5779 52.9584 75.5739 52.9584C75.3537 52.9584 75.1416 52.9339 74.9378 52.8809C74.9133 52.8727 74.8848 52.8687 74.8603 52.8687C74.8481 52.8687 74.8317 52.8687 74.8195 52.8727C74.4322 52.938 73.1559 53.1949 71.9122 53.9859C71.8184 54.0471 71.7084 54.0756 71.6023 54.0756C71.427 54.0756 71.2557 53.9941 71.1416 53.8473L70.375 52.8238C70.0814 52.4324 70.1548 52.0491 70.4362 51.8656C71.2843 51.3151 72.1365 50.9563 72.8541 50.7157C72.8134 50.5445 72.7971 50.3691 72.7971 50.1938L72.7889 48.4608C72.7807 46.7483 74.163 45.3537 75.8756 45.3497L78.5342 45.3334C78.5382 45.3293 78.5423 45.3293 78.5464 45.3293ZM78.5464 44H78.526L75.8634 44.0163C73.425 44.0245 71.4474 46.0225 71.4555 48.4608L71.4596 49.8146C70.8358 50.0796 70.2486 50.3895 69.7063 50.7443C69.2659 51.0297 68.9723 51.4701 68.8826 51.9838C68.7848 52.5384 68.9356 53.1174 69.3067 53.6148L70.0733 54.6383C70.4321 55.1154 70.9989 55.4008 71.5983 55.4008C71.9612 55.4008 72.3118 55.2989 72.6176 55.1031C73.4943 54.5445 74.3955 54.308 74.8358 54.2142C75.0682 54.2591 75.3129 54.2795 75.5698 54.2795L78.8889 54.2591C79.9858 54.255 81.0133 53.8228 81.788 53.044C82.5628 52.2652 82.9828 51.2336 82.9787 50.1367L82.9705 48.4078C82.9705 45.9817 80.9807 44 78.5464 44Z" fill="white"/>
<path d="M6.22757 58.1164L6.44776 59.829C6.64348 61.3499 8.038 62.4264 9.563 62.2266L10.9127 62.0064C11.1329 61.9778 11.349 61.9248 11.5447 61.8433C11.5814 61.827 11.6222 61.8188 11.6629 61.8188C12.0585 61.831 13.351 61.9167 14.6925 62.5405C14.9657 62.6669 15.2919 62.5609 15.4387 62.3L15.8669 60.9381C16.0422 60.4488 16.0259 60.1103 15.6793 59.9962C14.7211 59.6781 14.0728 59.5639 13.3306 59.4212C13.347 59.2459 13.3388 59.0706 13.3184 58.8952L13.0982 57.1786C12.878 55.4823 11.3245 54.2794 9.62824 54.4996L8.91467 54.6383C7.21026 54.8625 6.01146 56.4161 6.22757 58.1164Z" fill="black"/>
<path d="M10.0234 54.4787C11.5606 54.4787 12.894 55.6204 13.0938 57.1821L13.314 58.8987C13.3384 59.0741 13.3425 59.2494 13.3262 59.4247C14.0642 59.5675 14.7126 59.6857 15.6749 59.9997C16.0214 60.1139 16.0378 60.4523 15.8624 60.9416L15.4343 62.3035C15.3283 62.4911 15.1325 62.5971 14.9327 62.5971C14.8512 62.5971 14.7696 62.5808 14.6922 62.5441C13.3507 61.9243 12.054 61.8346 11.6626 61.8223C11.6585 61.8223 11.6585 61.8223 11.6544 61.8223C11.6177 61.8223 11.581 61.8305 11.5443 61.8468C11.3445 61.9284 11.1325 61.9814 10.9123 62.0099L9.56262 62.2301C9.44029 62.2464 9.32204 62.2546 9.20379 62.2546C7.82559 62.2546 6.63087 61.2311 6.44738 59.8325L6.22719 58.1199C6.007 56.4196 7.20988 54.862 8.91021 54.6459L9.62378 54.5072C9.75834 54.4868 9.8929 54.4787 10.0234 54.4787ZM10.0234 53.1494C9.83581 53.1494 9.64417 53.1616 9.45252 53.1861L9.41175 53.1902L9.37097 53.1983L8.6941 53.3288C7.53608 53.4879 6.50854 54.0872 5.79497 55.0129C5.07325 55.9507 4.7552 57.1128 4.90607 58.2871L5.12625 59.9997C5.38722 62.0425 7.14056 63.5798 9.19972 63.5798C9.37505 63.5798 9.55446 63.5675 9.7298 63.5471L9.75018 63.5431L9.77057 63.539L11.0998 63.3229C11.3486 63.2903 11.5892 63.2332 11.8093 63.1598C12.2619 63.1924 13.1835 63.3106 14.1254 63.7469C14.3782 63.8652 14.6473 63.9223 14.9246 63.9223C15.6137 63.9223 16.2498 63.5512 16.5841 62.9518L16.6535 62.8336L16.6942 62.7031L17.1142 61.3697C17.2121 61.0925 17.4649 60.3422 17.1142 59.6245C16.9103 59.2046 16.5434 58.8906 16.0867 58.7397C15.4995 58.5481 15.0184 58.4217 14.5739 58.3238L14.4067 57.0149C14.1295 54.8131 12.2416 53.1494 10.0234 53.1494Z" fill="white"/>
<path d="M35.6144 61.2481L18.5214 64.0779C17.8404 64.192 17.2696 63.5641 17.4408 62.8954L21.8405 46.0592C21.9791 45.521 22.4195 45.1173 22.97 45.0194L38.114 42.3364C39.0926 42.1611 39.9407 43.0174 39.7613 43.996L36.7806 60.1104C36.6746 60.6935 36.2057 61.1502 35.6144 61.2481Z" fill="black"/>
<path d="M18.366 64.7548C17.9134 64.7548 17.4812 64.5672 17.1713 64.2288C16.8003 63.821 16.6616 63.2624 16.8003 62.7283L21.1999 45.8921C21.4038 45.1051 22.0562 44.5057 22.8554 44.3671L37.9994 41.6841C38.6763 41.5658 39.3613 41.7819 39.8424 42.2672C40.3236 42.7524 40.5397 43.4456 40.4133 44.1184L37.4326 60.2328C37.2736 61.0932 36.5845 61.77 35.7201 61.9128L18.627 64.7426C18.5414 64.7466 18.4517 64.7548 18.366 64.7548ZM38.3705 42.9726C38.3256 42.9726 38.2808 42.9767 38.2359 42.9848L23.0919 45.6678C22.8024 45.7208 22.5659 45.937 22.4925 46.2224L18.0888 63.0626C18.0562 63.1972 18.1173 63.2869 18.154 63.3317C18.1948 63.3766 18.2804 63.4459 18.415 63.4214L35.508 60.5916C35.822 60.5386 36.0707 60.294 36.1278 59.98L39.1085 43.8656C39.1533 43.6168 39.08 43.3722 38.9005 43.1928C38.7578 43.0501 38.5703 42.9726 38.3705 42.9726Z" fill="white"/>
<path d="M65.849 56.286L40.8088 60.3921C40.1686 60.4981 39.6222 59.9354 39.7364 59.2993L42.8149 42.4835C42.925 41.8923 43.3899 41.4315 43.9852 41.3377L67.3576 37.5048C68.2955 37.3499 69.1151 38.1409 69.0009 39.0829L67.0274 55.0546C66.954 55.6866 66.4728 56.1841 65.849 56.286Z" fill="black"/>
<path d="M40.6581 61.0685C40.234 61.0685 39.8181 60.8973 39.5164 60.5915C39.1535 60.2204 38.9904 59.6944 39.0841 59.1847L42.1627 42.3689C42.3217 41.5045 43.0108 40.8276 43.8753 40.6849L67.2477 36.852C67.9001 36.746 68.5525 36.9458 69.0296 37.4066C69.5067 37.8673 69.735 38.5075 69.6535 39.1681L67.6799 55.1398C67.5658 56.0532 66.8563 56.7953 65.947 56.9421L40.9068 61.0482C40.8293 61.0645 40.7437 61.0685 40.6581 61.0685ZM67.5943 38.1528C67.5535 38.1528 67.5128 38.1568 67.4679 38.165L44.0954 41.9979C43.7815 42.0509 43.5287 42.2955 43.4716 42.6095L40.393 59.4253C40.3726 59.5476 40.4297 59.6251 40.4664 59.6659C40.5031 59.7026 40.5806 59.7637 40.7029 59.7433L65.7431 55.6373C66.0734 55.5842 66.3303 55.3151 66.371 54.9808L68.3446 39.009C68.3731 38.7685 68.2916 38.536 68.1162 38.3689C67.9735 38.2262 67.786 38.1528 67.5943 38.1528Z" fill="white"/>
<path d="M72.418 56.3225C72.418 56.3225 70.9786 56.7262 70.5464 56.9667C70.5341 56.9749 70.5056 56.9953 70.4934 56.9993C70.4852 56.9993 70.4934 56.9912 70.4934 56.9993C69.6167 57.77 68.8256 58.7527 68.0876 60.029C67.7084 60.6814 67.3455 61.4153 66.9907 62.239C66.2649 63.9189 65.584 65.9699 64.899 68.4939C64.899 68.5021 64.8908 68.5021 64.8908 68.5062C64.8378 68.6978 64.7848 68.8895 64.7399 69.0852C63.2639 74.5328 62.1181 81.2607 60.4871 88.7145C60.1609 90.1171 59.8306 91.5443 59.484 93C58.7337 96.107 58.0283 98.9328 57.3596 101.461C57.172 102.146 57.0008 102.802 56.8295 103.438C56.7113 103.883 56.5849 104.315 56.4625 104.739C56.4095 104.943 56.3484 105.151 56.2913 105.351C56.12 105.962 55.9447 106.546 55.7816 107.104C55.6307 107.622 55.4758 108.128 55.3249 108.613C55.2637 108.817 55.2067 109.017 55.1373 109.212C55.0762 109.392 55.0232 109.579 54.9661 109.75C54.8682 110.077 54.7622 110.387 54.6603 110.688C54.3993 111.471 54.1506 112.197 53.9018 112.845C53.8937 112.854 53.8937 112.858 53.8937 112.866C52.646 117.363 54.3585 117.543 56.1567 117.225L56.1893 118.195L55.6593 118.289L43.08 120.495C40.1361 121.013 37.4694 121.159 35.5203 119.838C34.4438 119.108 33.5794 117.926 33.0167 116.111C33.0085 116.103 33.0085 116.099 33.0085 116.091L30.0727 109.608C26.7332 101.816 23.6424 87.9193 19.0796 76.1597C19.0715 76.1597 18.9614 75.8294 18.8391 75.4951C18.8105 75.4135 18.7779 75.3279 18.7534 75.2504C18.7331 75.1893 18.7127 75.1363 18.6923 75.0832C18.6474 74.9365 18.6066 74.8304 18.6066 74.8304C17.0857 70.5205 16.2621 68.7875 14.1091 67.9312C13.6524 67.7437 12.1682 67.5194 12.1682 67.5194L12.2538 66.5449L12.4781 66.5653L12.8573 66.5979C12.8777 66.5979 12.9022 66.606 12.9226 66.606C14.8472 66.7732 16.5638 67.1157 18.1051 67.6173C20.0134 68.2371 21.6444 69.077 23.0675 70.1127C23.0675 70.1127 23.0797 70.1209 23.1083 70.1413C25.8361 72.1923 28.8454 78.8305 30.2032 81.9294C30.2154 81.9498 30.2236 81.9743 30.2317 81.9947C30.6558 83.3688 31.1002 84.8693 31.5406 86.484C31.5732 86.6104 31.6058 86.745 31.6466 86.8673C32.6048 90.3088 33.6079 93.4363 34.6436 96.2579C34.6436 96.2661 34.6518 96.2701 34.6518 96.2783C35.2104 97.7911 35.7813 99.3201 36.3643 100.853C36.9026 102.276 37.4612 103.703 38.0239 105.139C39.0351 107.748 40.0382 109.661 41.0454 110.884C41.7834 111.801 42.5255 112.238 43.2554 112.193C43.288 112.193 43.3206 112.185 43.3532 112.173C44.1157 111.806 45.1188 109.914 46.3543 106.493C46.4726 106.154 46.599 105.803 46.7254 105.436C46.7335 105.428 46.7335 105.424 46.7335 105.416C46.8395 105.033 46.9456 104.645 47.0475 104.254C47.5735 102.301 48.1117 100.254 48.654 98.105C48.9721 96.8492 49.2983 95.5607 49.6245 94.2395C51.0068 88.6533 52.4462 82.4554 53.9467 75.6663C54.1057 74.9405 54.2729 74.2107 54.4319 73.4726C54.5706 72.8488 54.7051 72.2167 54.8438 71.5847C54.8438 71.5725 54.8519 71.5643 54.8519 71.5562C55.3494 70.0434 55.9365 68.5755 56.6338 67.1647C57.9875 64.4286 59.7694 61.9495 62.2119 59.9393C63.5452 58.822 65.0825 57.8597 66.848 57.0646C68.3771 56.3755 70.0815 55.8169 71.9898 55.4091H72.002L72.2141 55.3643L72.2467 55.5355L72.2671 55.6211L72.418 56.3225Z" fill="black"/>
<path d="M72.2182 55.3639L72.2509 55.5352L72.2712 55.6208L72.418 56.3181C72.418 56.3181 70.9787 56.7218 70.5464 56.9623C70.5342 56.9705 70.5057 56.9909 70.4934 56.995C70.4934 56.9909 70.4934 56.9909 70.4934 56.9909C70.4934 56.9909 70.4894 56.995 70.4934 56.995C69.6168 57.7656 68.8257 58.7483 68.0877 60.0246C67.7085 60.677 67.3456 61.4109 66.9908 62.2346C66.265 63.9145 65.5841 65.9656 64.8991 68.4895C64.8991 68.4977 64.8909 68.4977 64.8909 68.5018C64.8379 68.6934 64.7849 68.8851 64.74 69.0808C63.264 74.5284 62.1182 81.2563 60.4872 88.7101C60.1609 90.1127 59.8307 91.5399 59.4841 92.9956C58.7338 96.1026 58.0284 98.9284 57.3597 101.456C57.1721 102.141 57.0009 102.798 56.8296 103.434C56.7113 103.879 56.5849 104.311 56.4626 104.735C56.4096 104.939 56.3485 105.147 56.2914 105.346C56.1201 105.958 55.9448 106.541 55.7817 107.1C55.6308 107.618 55.4759 108.123 55.325 108.608C55.2638 108.812 55.2067 109.012 55.1374 109.208C55.0763 109.387 55.0233 109.575 54.9662 109.746C54.8683 110.072 54.7623 110.382 54.6603 110.684C54.3994 111.467 54.1507 112.193 53.9019 112.841C53.8938 112.849 53.8938 112.853 53.8938 112.861C52.8785 116.519 53.8204 117.322 55.1782 117.322C55.4881 117.322 55.8224 117.281 56.1568 117.22L56.1894 118.191L55.6593 118.284L43.0801 120.49C41.8243 120.711 40.6132 120.866 39.4919 120.866C37.9873 120.866 36.6376 120.588 35.5204 119.834C34.4439 119.104 33.5795 117.922 33.0168 116.107C33.0086 116.099 33.0086 116.095 33.0086 116.087L30.0728 109.603C26.7333 101.811 23.6425 87.915 19.0797 76.1553C19.0716 76.1553 18.9615 75.825 18.8392 75.4907C18.8106 75.4091 18.778 75.3235 18.7535 75.246C18.7331 75.1849 18.7127 75.1319 18.6924 75.0789C18.6475 74.9321 18.6067 74.826 18.6067 74.826C17.0858 70.5161 16.2621 68.7831 14.1092 67.9268C13.6525 67.7393 12.1683 67.515 12.1683 67.515L12.2539 66.5405L12.4782 66.5609L12.8574 66.5935C12.8778 66.5935 12.9023 66.6016 12.9226 66.6016C14.8472 66.7688 16.5639 67.1113 18.1052 67.6129C20.0135 68.2327 21.6445 69.0726 23.0676 70.1083C23.0676 70.1083 23.0798 70.1165 23.1083 70.1369C25.8362 72.1879 28.8454 78.8261 30.2033 81.925C30.2155 81.9454 30.2236 81.9699 30.2318 81.9903C30.6559 83.3644 31.1003 84.8649 31.5407 86.4797C31.5733 86.6061 31.6059 86.7406 31.6467 86.8629C32.6049 90.3044 33.608 93.4319 34.6437 96.2535C34.6437 96.2617 34.6519 96.2658 34.6519 96.2739C35.2105 97.7867 35.7813 99.3158 36.3644 100.849C36.9027 102.272 37.4613 103.699 38.024 105.134C39.0352 107.744 40.0383 109.656 41.0454 110.88C41.7468 111.752 42.4563 112.193 43.1535 112.193C43.1902 112.193 43.2228 112.193 43.2595 112.189C43.2922 112.189 43.3248 112.18 43.3574 112.168C44.1199 111.801 45.123 109.909 46.3585 106.488C46.4767 106.15 46.6031 105.799 46.7295 105.432C46.7377 105.424 46.7377 105.42 46.7377 105.412C46.8437 105.028 46.9497 104.641 47.0517 104.25C47.5777 102.296 48.1159 100.25 48.6582 98.1006C48.9763 96.8448 49.3025 95.5563 49.6287 94.2351C51.0109 88.6489 52.4503 82.451 53.9509 75.6619C54.1099 74.9361 54.2771 74.2063 54.4361 73.4682C54.5747 72.8444 54.7093 72.2123 54.8479 71.5803C54.8479 71.5681 54.8561 71.5599 54.8561 71.5518C55.3535 70.039 55.9407 68.5711 56.638 67.1603C57.9917 64.4242 59.7736 61.9451 62.216 59.9349C63.5494 58.8176 65.0866 57.8553 66.8522 57.0602C68.3813 56.3711 70.0857 55.8125 71.994 55.4047H72.0062L72.2182 55.3639ZM72.2182 54.0347C72.1245 54.0347 72.0266 54.0428 71.9328 54.0673L71.786 54.0999C71.7616 54.104 71.7371 54.1081 71.7126 54.1121C69.7636 54.528 67.9409 55.1111 66.3017 55.8532C64.4709 56.681 62.8073 57.7126 61.3597 58.9196C58.9458 60.9053 57.009 63.413 55.4432 66.5772C54.7419 67.9921 54.1384 69.4845 53.592 71.1399C53.5839 71.1685 53.5757 71.193 53.5676 71.2215C53.5594 71.246 53.5553 71.2704 53.5513 71.2949C53.486 71.5803 53.4249 71.8698 53.3637 72.1553C53.2903 72.4978 53.2169 72.8362 53.1394 73.1787C53.0416 73.6354 52.9396 74.0799 52.8418 74.5243L52.6583 75.3765C51.1537 82.186 49.7021 88.4206 48.3402 93.913C48.014 95.2341 47.6918 96.5186 47.3738 97.7704C46.8804 99.7154 46.3585 101.722 45.7713 103.903C45.6734 104.29 45.5715 104.657 45.4696 105.02C45.3839 105.269 45.2983 105.51 45.2168 105.742L45.1107 106.044C43.9568 109.24 43.2432 110.394 42.9293 110.794C42.7091 110.692 42.4196 110.46 42.0852 110.044C41.1678 108.931 40.2218 107.124 39.2676 104.653C38.762 103.365 38.1708 101.86 37.6122 100.38C37.0576 98.9284 36.4867 97.3993 35.9118 95.8335C35.9077 95.8213 35.9037 95.8091 35.8996 95.7968C34.8598 92.9629 33.8649 89.8396 32.9352 86.5082C32.9311 86.4919 32.9271 86.4797 32.923 86.4633C32.8985 86.3818 32.874 86.2921 32.8537 86.2065L32.8374 86.1371C32.4418 84.6855 32.0096 83.2013 31.5121 81.5907C31.4877 81.5173 31.4591 81.4357 31.4143 81.342C28.5029 74.6833 26.0523 70.667 23.9198 69.0645C23.8871 69.04 23.8586 69.0196 23.826 68.9992C22.2643 67.8657 20.4824 66.9727 18.5293 66.3366C16.8575 65.7984 15.0185 65.4355 13.0572 65.2683C13.0287 65.2642 13.0042 65.2642 12.9756 65.2601L12.6087 65.2275L12.3844 65.2071C12.3436 65.203 12.3069 65.2031 12.2662 65.2031C11.5852 65.2031 11.0062 65.725 10.945 66.4141L10.8594 67.3886C10.7982 68.0859 11.2875 68.7138 11.9807 68.8198C12.6698 68.9258 13.4364 69.0808 13.624 69.1501C15.1408 69.7536 15.8055 70.8382 17.3631 75.2623C17.3753 75.295 17.4039 75.3724 17.4365 75.4744C17.4446 75.4948 17.4487 75.5192 17.4569 75.5396C17.4732 75.5763 17.4854 75.6171 17.5017 75.6579C17.518 75.7068 17.5343 75.7598 17.5547 75.8087L17.5873 75.9025L17.7219 76.2858C17.7545 76.3796 17.7953 76.4978 17.8524 76.6242L17.8442 76.6283C20.1277 82.5163 22.089 89.1015 23.8138 94.9161C25.5386 100.714 27.1696 106.195 28.8536 110.121L31.769 116.56C32.3929 118.525 33.4041 119.997 34.7742 120.927C36.026 121.775 37.5673 122.187 39.4919 122.187C40.5684 122.187 41.7794 122.06 43.3085 121.791L55.8877 119.585L56.4178 119.491C57.0702 119.377 57.5391 118.798 57.5146 118.138L57.482 117.167C57.4698 116.784 57.2904 116.421 56.9886 116.18C56.7521 115.989 56.4545 115.883 56.1527 115.883C56.0753 115.883 55.9978 115.891 55.9203 115.903C55.6104 115.956 55.3658 115.985 55.1741 115.985C54.9947 115.985 54.905 115.96 54.8724 115.952C54.8234 115.85 54.6114 115.251 55.1578 113.261C55.3943 112.629 55.643 111.919 55.9162 111.096L55.9652 110.949C56.0508 110.692 56.1405 110.427 56.222 110.154C56.2547 110.052 56.2914 109.95 56.324 109.844C56.3485 109.771 56.3688 109.697 56.3933 109.628C56.4626 109.428 56.5279 109.208 56.5931 108.98C56.7399 108.515 56.8948 108.005 57.0498 107.479C57.217 106.92 57.3923 106.329 57.5636 105.709C57.6206 105.514 57.6859 105.293 57.743 105.069L57.849 104.698C57.9346 104.396 58.0202 104.091 58.1059 103.781C58.1833 103.487 58.2649 103.185 58.3464 102.884C58.4402 102.533 58.5381 102.174 58.636 101.807C59.2639 99.4462 59.9611 96.6654 60.7726 93.3095C61.1192 91.8498 61.4535 90.4186 61.7797 89.0159C62.3751 86.2921 62.897 83.6988 63.4067 81.1952C64.2711 76.9137 65.0907 72.8688 66.0204 69.4355C66.0245 69.4233 66.0285 69.4111 66.0285 69.3988C66.0652 69.2398 66.1101 69.0849 66.1509 68.9258C66.159 68.8973 66.1672 68.8688 66.1753 68.8443C66.8481 66.3651 67.5128 64.3753 68.2059 62.7647C68.5362 61.9899 68.8787 61.2968 69.2294 60.6933C69.8492 59.6168 70.5138 58.7646 71.2519 58.0918C71.5047 57.9817 72.1693 57.7656 72.7728 57.5984C73.4456 57.4109 73.8574 56.7299 73.7147 56.049L73.5679 55.3517L73.5475 55.2661L73.519 55.1152C73.4497 54.7645 73.2458 54.4547 72.944 54.2549C72.732 54.1121 72.4792 54.0347 72.2182 54.0347Z" fill="white"/>
<path d="M26.0807 28.9905H37.3307C37.3307 31.6491 37.3307 33.4636 37.3307 36.1221C30.9534 36.1221 24.3967 36.1221 18.1091 36.1221V5.12061C20.7677 5.12061 23.3814 5.12061 26.0807 5.12061C26.0807 21.1535 26.0807 15.7915 26.0807 28.9905Z" fill="#6EB4E7"/>
<path d="M46.7294 4.9209C45.7101 8.63962 43.8058 13.3777 42.5663 15.4165L39.4021 15.4736C40.3766 12.8599 41.4857 8.50506 41.975 5.31642L46.7294 4.9209Z" fill="#6EB4E7"/>
<path d="M65.8121 32.6236H53.5876L51.7731 36.1221H44.0217V35.3678L57.9751 5.12061H61.3839L75.378 35.3678V36.1221H67.6266L65.8121 32.6236ZM59.6591 17.6998L56.1606 25.8467H63.2473L59.6591 17.6998Z" fill="#6EB4E7"/>
<path d="M105.63 34.9684V36.1182H96.7731L91.4601 26.9968H87.3418V36.1182C84.6832 36.1182 81.9839 36.1182 79.415 36.1182C79.415 25.798 79.415 15.4818 79.415 5.1167C83.8881 5.1167 88.4957 5.1167 93.0096 5.1167C105.189 5.16155 107.403 19.8203 99.5662 25.1333L105.63 34.9684ZM93.0096 12.2075C91.1502 12.1627 89.2011 12.2075 87.3418 12.2075C87.3418 14.7315 87.3418 17.3901 87.3418 19.8692H93.0096C97.3073 19.8692 97.5275 12.2524 93.0096 12.2075Z" fill="#6EB4E7"/>
<path d="M107.363 12.2074C107.363 9.81385 107.363 7.46927 107.363 5.12061H130.393C130.393 7.46927 130.393 9.81385 130.393 12.2074H122.821V36.1221C120.207 36.1221 117.593 36.1221 114.983 36.1221V12.2074H107.363Z" fill="#6EB4E7"/>
</svg>
