<svg width="106" height="126" viewBox="0 0 106 126" fill="none" xmlns="http://www.w3.org/2000/svg">
<g clip-path="url(#clip0_254_616)">
<path d="M51.3303 1.01291C51.317 1.02616 50.8797 1.07475 50.363 1.12333C48.2208 1.31326 46.772 1.56503 44.7403 2.09065C42.3816 2.70019 40.2571 3.49966 38.1149 4.58623C34.2546 6.53853 31.0523 9.06945 28.1416 12.4661C24.9968 16.1322 22.7751 20.4696 21.4854 25.474C20.9818 27.4308 20.814 29.0297 20.814 31.9051C20.8096 36.088 21.2954 38.7779 22.9297 43.6101C24.9349 49.5509 27.8987 54.9219 31.6619 59.4361C33.1062 61.1631 34.047 62.1392 37.1653 65.1472C38.2695 66.2117 40.3057 68.1905 41.6926 69.5376C43.0751 70.8892 45.0759 72.8327 46.1316 73.8619C47.1872 74.8866 48.1015 75.8097 48.1634 75.9113L48.2738 76.0968L48.287 84.012L48.2959 91.9316H53.3709H58.4414L58.4238 83.9237L58.4017 75.9202L58.5033 75.7744C58.5607 75.6949 61.5907 72.6737 65.2346 69.0562C68.8785 65.4431 72.1912 62.126 72.5931 61.6931C75.8837 58.1507 78.3616 54.5907 80.5347 50.2797C81.7184 47.9343 82.4826 46.0659 83.5073 43.0359C84.5673 39.8822 85.0576 37.7576 85.2961 35.2179C85.4109 33.9988 85.4109 29.2594 85.2961 28.3186C85.0178 26.0262 84.2449 23.2523 83.1848 20.7435C80.4905 14.3786 76.0472 9.24613 70.2036 5.74789C66.0606 3.26556 61.7011 1.76821 57.1075 1.25584C54.7622 0.995243 54.6518 0.986409 52.9733 0.986409C52.0855 0.986409 51.3479 0.99966 51.3303 1.01291ZM55.6279 12.5279C57.9777 12.7974 59.9299 13.27 61.8999 14.0474C66.3742 15.8097 70.3317 19.2594 72.6152 23.3804C74.3643 26.5474 75.1594 30.5491 74.7707 34.277C74.3776 38.0756 72.7433 41.6666 69.9607 44.8468C69.3467 45.5447 68.1851 46.6578 67.4651 47.2364C65.4113 48.8839 63.3044 50.0191 60.6631 50.8981C58.9538 51.4723 57.4211 51.8035 55.6941 51.9891C54.7445 52.0862 51.7984 52.0995 50.9681 52.0111C45.5971 51.4237 41.0257 49.2108 37.2978 45.3945C35.8447 43.906 34.8155 42.4882 33.9145 40.717C32.8853 38.7028 32.2714 36.618 31.9666 34.1136C31.8695 33.3053 31.8562 31.1322 31.9445 30.3371C32.4348 25.929 34.471 21.8786 37.8764 18.5394C40.1865 16.2779 42.894 14.6702 46.2862 13.5482C48.0529 12.9652 49.8727 12.603 51.8073 12.4528C52.355 12.4131 55.0625 12.4661 55.6279 12.5279ZM57.7038 79.5641V82.5235L53.3444 82.5147L48.9805 82.5014L48.9672 79.5951C48.9628 78.0005 48.9761 76.6931 48.9937 76.6931C49.0246 76.6931 51.5246 79.096 53.0087 80.5491L53.3267 80.8583L55.4733 78.7338C56.657 77.5633 57.642 76.6048 57.6641 76.6048C57.6862 76.6048 57.7038 77.8062 57.7038 79.5641Z" fill="white"/>
<path d="M90.5568 59.9396L90.3934 59.9573L90.3801 60.5403L90.3669 61.1234L87.465 61.1366L84.5587 61.1454L84.5498 68.9325L84.5366 76.7152L83.6444 76.7285L82.7478 76.7373V76.1852V75.6331L81.701 75.6242L80.6497 75.611L80.6365 74.7188L80.6277 73.831L80.1065 73.8C79.5544 73.7647 73.5916 73.8089 73.2426 73.8486L73.0306 73.8751V74.7541V75.6331H70.2921H67.5537V76.1852V76.7373H65.8885C64.9698 76.7373 64.0864 76.7506 63.923 76.7682L63.6226 76.7947V86.7638V96.7373L63.4371 96.7638C62.7569 96.8522 42.5674 96.8168 42.3244 96.7241C42.2493 96.6932 42.2449 96.3619 42.2449 90.6463V84.5995H40.4119H38.5789V84.0695V83.5394H33.0578H27.5411L27.5279 84.0341L27.5146 84.5333L27.1833 84.5686C26.7902 84.6128 21.8168 84.5774 21.6711 84.5333L21.5739 84.5023V74.9882V65.4741L20.0192 65.4652L18.46 65.452L18.4467 64.9087L18.4335 64.3698H11.8126H5.18725V64.9219V65.4741H2.87722H0.562769L0.536268 67.073C0.5186 67.952 0.50535 69.5863 0.50535 70.7037C0.50535 71.8257 0.483265 73.3098 0.456764 74.0032C0.381677 75.8363 0.461181 77.2055 0.792447 79.8513C0.97354 81.2691 1.2253 82.8504 1.45498 84.0032C2.71821 90.293 5.23583 96.4944 8.73401 101.936C11.393 106.07 14.7454 109.895 18.6897 113.297C26.9051 120.381 36.4411 124.511 47.2581 125.677C49.736 125.942 50.1026 125.96 52.8454 125.964C55.1511 125.964 55.5618 125.956 56.6661 125.863C59.0688 125.668 60.734 125.452 62.8497 125.059C63.2384 124.984 63.7375 124.909 63.9539 124.887C64.2366 124.86 64.4707 124.798 64.7666 124.683C64.9963 124.595 65.6014 124.423 66.1138 124.304C70.1861 123.354 75.2346 121.287 79.3335 118.888C84.7044 115.748 89.6425 111.512 93.6928 106.565C98.388 100.827 101.873 93.9281 103.75 86.6534C104.47 83.8619 104.801 81.861 105.163 78.1287C105.261 77.1216 105.358 76.3619 105.428 76.0527L105.539 75.5668V67.7355V59.9087L98.1318 59.9175C94.055 59.9219 90.6452 59.9308 90.5568 59.9396ZM93.1539 65.24C93.1981 65.7435 93.1981 69.4847 93.1539 69.6128L93.123 69.7143H90.7644C88.927 69.7143 88.397 69.7011 88.3705 69.6569C88.3263 69.5863 88.2954 65.6198 88.3351 65.1825L88.366 64.8557H90.7423H93.1186L93.1539 65.24ZM101.793 64.9529C101.838 65.0324 101.851 65.5271 101.851 67.1304C101.851 68.27 101.833 69.3212 101.815 69.4582L101.78 69.7143H99.395H97.0143V67.3159C97.0143 65.9953 97.0276 64.8999 97.0452 64.8866C97.0585 64.8689 98.1229 64.8557 99.4038 64.8557H101.736L101.793 64.9529ZM9.11386 69.202C9.1492 69.2241 9.16245 69.9484 9.16245 71.6181V73.9988H6.75524H4.34804V71.6136C4.34804 69.7364 4.36129 69.2285 4.40546 69.2241C5.03266 69.1534 9.00786 69.1357 9.11386 69.202ZM17.7754 69.2064C17.8063 69.2241 17.8195 70.0103 17.8195 71.5916V73.9546L17.7003 73.9856C17.5457 74.0297 13.1421 74.0341 13.0405 73.99C12.9654 73.959 12.961 73.8045 12.961 71.6181C12.961 69.8248 12.9742 69.2682 13.014 69.2462C13.1509 69.1578 17.6384 69.1225 17.7754 69.2064ZM101.82 75.8848L101.829 78.2788L101.621 78.3142C101.356 78.3539 97.1954 78.3628 97.0938 78.3186C97.0187 78.2877 97.0143 78.1331 97.0143 75.9069C97.0143 74.5995 97.0276 73.5129 97.0452 73.4997C97.0585 73.482 98.1406 73.4732 99.4392 73.4776L101.807 73.4909L101.82 75.8848ZM93.1716 75.9202V78.3274L90.7556 78.3186L88.3351 78.3053L88.3219 75.9069L88.313 73.5129H90.7423H93.1716V75.9202ZM17.7577 77.8636C17.8725 78.0182 17.9079 82.497 17.793 82.6119C17.7621 82.6428 16.9936 82.6516 15.3858 82.6472L13.0272 82.634L13.014 80.2356L13.0051 77.8416L13.1023 77.8371C14.0519 77.7841 15.0634 77.7665 16.2515 77.7797C17.5148 77.793 17.7135 77.8062 17.7577 77.8636ZM8.99902 77.8239L9.16245 77.8548V80.2311V82.6119H6.75524H4.34804V80.2311V77.846L4.4938 77.8283C4.73231 77.8018 8.81793 77.7974 8.99902 77.8239ZM72.1163 80.4785L72.4123 80.505V82.9034V85.3062H70.005H67.5978L67.6067 82.9078L67.6199 80.5138L67.9733 80.4873C68.4812 80.452 71.7586 80.4431 72.1163 80.4785ZM80.7734 80.4785L81.0693 80.505V82.9034V85.3062H78.6621H76.2549L76.2638 82.9078L76.277 80.5138L76.6304 80.4873C77.1383 80.452 80.4156 80.4431 80.7734 80.4785ZM93.1407 83.0977C93.1893 83.3495 93.1981 87.3999 93.1539 87.5942L93.1186 87.7356L90.7291 87.7267L88.3351 87.7135L88.3219 85.3504C88.3175 84.0518 88.3219 82.9608 88.3351 82.9299C88.3484 82.8857 88.8519 82.8769 90.7291 82.8857L93.1009 82.899L93.1407 83.0977ZM17.4132 86.2603L17.8195 86.2912V88.6896V91.0924H15.4123H13.0051L13.014 88.694L13.0272 86.3L13.4247 86.2735C14.0122 86.2382 16.945 86.2294 17.4132 86.2603ZM29.6524 88.5129L29.9218 88.5439V90.9202V93.2965L29.67 93.3318C29.352 93.3716 25.2885 93.3804 25.1869 93.3363C25.1118 93.3053 25.1074 93.1507 25.1074 90.9423V88.5748L25.209 88.5527C25.3768 88.5129 25.8274 88.5041 27.6294 88.4953C28.5923 88.4909 29.5022 88.4997 29.6524 88.5129ZM38.283 88.5174L38.5789 88.5439V90.9423V93.3451H36.1717H33.7645L33.7733 90.9467L33.7866 88.5527L34.1399 88.5262C34.6479 88.4909 37.9252 88.482 38.283 88.5174ZM80.7734 89.0916L81.0693 89.1181V91.49V93.8619L80.9059 93.8928C80.6056 93.9414 77.8406 93.9767 77.0411 93.9414L76.2549 93.9105V91.5297V89.1534L76.4007 89.1269C76.6304 89.0871 77.0676 89.0783 78.8167 89.0695C79.7266 89.0651 80.6056 89.0739 80.7734 89.0916ZM72.3902 91.8433V94.2506L69.9962 94.2638L67.5978 94.2727V91.8433V89.414L69.9962 89.4228L72.3902 89.4361V91.8433ZM29.5155 97.126L29.9218 97.1569V99.5333V101.91L29.7142 101.941C29.3741 101.994 25.209 101.989 25.1516 101.932C25.1207 101.901 25.1118 101.141 25.1162 99.5244L25.1295 97.1658L25.5491 97.1393C26.1719 97.1039 29.0517 97.0951 29.5155 97.126ZM38.2167 97.1304L38.5789 97.1569V99.5553V101.958H36.1717H33.7645V99.573V97.1879L33.8661 97.1658C34.1046 97.1128 37.5984 97.0818 38.2167 97.1304ZM72.4123 100.434V102.842H70.005H67.5978V100.434V98.0271H70.005H72.4123V100.434ZM59.833 101.084C59.8771 101.163 59.8904 101.671 59.8904 103.305C59.8904 104.471 59.8727 105.518 59.855 105.637L59.8197 105.845L57.4258 105.836L55.0318 105.823L55.0186 103.46C55.0141 102.161 55.0186 101.07 55.0318 101.039C55.0451 101 55.5662 100.986 57.4125 100.986H59.7755L59.833 101.084ZM51.1891 101.304C51.2112 101.459 51.2244 102.418 51.2244 103.438C51.2244 104.458 51.2112 105.417 51.1891 105.567L51.1582 105.845H48.804C46.9666 105.845 46.4365 105.832 46.41 105.788C46.3659 105.721 46.3305 101.6 46.3747 101.274L46.4012 101.031H48.7819H51.1582L51.1891 101.304ZM38.5568 105.92C38.6054 106.031 38.6363 110.24 38.5922 110.483L38.5524 110.682H36.1938H33.8352L33.7954 110.505C33.7468 110.297 33.7292 106.035 33.7733 105.92C33.8043 105.85 33.9588 105.845 36.1673 105.845C38.3713 105.845 38.5259 105.85 38.5568 105.92ZM51.2112 112.073V114.502H48.8305C46.6044 114.502 46.4498 114.498 46.4189 114.423C46.3703 114.321 46.335 110.492 46.3747 110.019L46.4056 109.644H48.8084H51.2112V112.073ZM59.8683 112.051V114.458H57.4611H55.0539V112.051V109.644H57.4611H59.8683V112.051Z" fill="white"/>
</g>
<defs>
<clipPath id="clip0_254_616">
<rect width="105.166" height="125" fill="white" transform="translate(0.416992 0.986816)"/>
</clipPath>
</defs>
</svg>
