<svg width="49" height="50" viewBox="0 0 49 50" fill="none" xmlns="http://www.w3.org/2000/svg">
<path d="M48.3414 5.84101C49.0681 6.52041 48.6368 7.23822 47.9943 7.73004C46.6252 8.77869 43.463 9.46253 41.7232 9.91005C38.5492 10.7283 35.3471 11.421 32.1923 12.2909C27.8353 13.4917 23.5624 14.9214 19.2822 16.3629L16.9869 23.8068L17.0608 23.9604C17.4625 22.6666 17.8746 21.3669 18.3472 20.0967C19.0828 18.1264 19.0872 17.2757 21.1446 16.3747C25.0142 14.6792 31.8349 12.6306 36.0117 12.4091C39.6908 12.2141 46.1792 12.9334 44.1646 18.3081C42.15 23.6827 32.9987 28.5626 28.4955 31.453C28.3832 31.5254 28.1661 31.614 28.1661 31.7676L37.9362 36.0006C38.9952 33.4972 40.0025 30.6481 42.1707 28.8713C44.8839 26.6455 46.0551 29.4577 46.4923 31.7957C47.4685 37.0079 46.5484 43.9452 43.7953 48.5238C42.7511 50.2607 41.7246 50.2799 39.9449 49.5296C37.149 48.351 34.0119 46.0469 31.4258 44.3662C27.2208 41.6352 23.0292 38.863 19.0311 35.8337L14.2442 48.3495C13.8277 49.15 13.4319 49.664 12.4379 49.5104C9.60951 48.0512 6.47391 46.8209 3.69722 45.2937C2.88489 44.8462 2.52303 44.3898 2.69288 43.3958C5.72362 35.8588 9.16494 28.4784 12.1898 20.9415C12.2946 20.6801 13.0464 18.8619 12.9563 18.7718L9.77345 19.9756C9.72914 20.6151 9.5844 21.2398 9.49578 21.872C9.08962 24.7772 8.74253 28.1343 7.0647 30.6289C3.12416 36.488 0.766922 26.7282 0.332694 23.8703C-0.0660865 21.2472 -0.224121 17.8901 0.539469 15.332C0.973697 13.8757 1.42565 13.8506 2.77116 13.378C3.31912 13.1845 3.93944 13.0043 4.50364 12.8566C12.0938 10.8656 19.9128 9.62794 27.5251 7.70789C33.4182 6.4953 39.5239 4.8219 45.5958 5.16899C46.2796 5.20739 47.8452 5.38167 48.3414 5.84396V5.84101ZM32.7314 19.8397C32.7019 19.8028 32.3917 19.5915 32.3297 19.5576C30.3668 18.5326 26.6522 20.4113 24.6657 21.0213C24.5165 21.132 22.5743 26.1552 21.4725 28.2909C21.4725 28.2909 25.5755 26.6514 27.5797 25.5437C28.7731 24.8835 31.7256 23.2928 32.4685 22.3033C32.9101 21.7139 33.2291 20.4556 32.7329 19.8382L32.7314 19.8397Z" fill="#EAE6D9"/>
<path d="M18.6515 0.0408475C24.5091 -0.665142 24.9758 8.00907 19.5125 8.38718C14.0493 8.76528 13.7686 0.630156 18.6515 0.0408475Z" fill="white"/>
</svg>
