<svg xmlns="http://www.w3.org/2000/svg" version="1.1" xmlns:xlink="http://www.w3.org/1999/xlink" xmlns:svgjs="http://svgjs.dev/svgjs" width="330" height="339"><svg width="330" height="339" viewBox="0 0 330 339" fill="none" xmlns="http://www.w3.org/2000/svg">
<path d="M327.303 39.5465C332.223 44.1465 329.303 49.0065 324.953 52.3365C315.683 59.4365 294.273 64.0665 282.493 67.0965C261.003 72.6365 239.323 77.3265 217.963 83.2165C188.463 91.3465 159.533 101.026 130.553 110.786L115.013 161.186L115.513 162.226C118.233 153.466 121.023 144.666 124.223 136.066C129.203 122.726 129.233 116.966 143.163 110.866C169.363 99.3865 215.543 85.5165 243.823 84.0165C268.733 82.6965 312.663 87.5665 299.023 123.956C285.383 160.346 223.423 193.386 192.933 212.956C192.173 213.446 190.703 214.046 190.703 215.086L256.853 243.746C264.023 226.796 270.843 207.507 285.523 195.477C303.893 180.407 311.823 199.446 314.783 215.276C321.393 250.566 315.163 297.536 296.523 328.536C289.453 340.296 282.503 340.426 270.453 335.346C251.523 327.366 230.283 311.767 212.773 300.387C184.303 281.897 155.923 263.126 128.853 242.616L96.4425 327.356C93.6225 332.776 90.9425 336.257 84.2125 335.217C65.0625 325.337 43.8325 317.006 25.0325 306.666C19.5325 303.636 17.0826 300.546 18.2326 293.816C38.7526 242.786 62.0525 192.816 82.5325 141.786C83.2425 140.016 88.3325 127.706 87.7225 127.096L66.1726 135.246C65.8726 139.576 64.8925 143.806 64.2925 148.086C61.5425 167.756 59.1925 190.486 47.8325 207.376C21.1525 247.046 5.19255 180.966 2.25255 161.616C-0.447448 143.856 -1.51745 121.126 3.65255 103.806C6.59255 93.9465 9.65255 93.7765 18.7626 90.5765C22.4726 89.2665 26.6725 88.0465 30.4925 87.0465C81.8825 73.5665 134.823 65.1865 186.363 52.1865C226.263 43.9765 267.603 32.6465 308.713 34.9965C313.343 35.2565 323.943 36.4365 327.303 39.5665V39.5465ZM221.613 134.326C221.413 134.076 219.313 132.646 218.893 132.416C205.603 125.476 180.453 138.196 167.003 142.326C165.993 143.076 152.843 177.087 145.383 191.547C145.383 191.547 173.163 180.447 186.733 172.947C194.813 168.477 214.803 157.706 219.833 151.006C222.823 147.016 224.983 138.496 221.623 134.316L221.613 134.326Z" fill="#2F2F2F"></path>
<path d="M126.283 0.276564C165.943 -4.50344 169.103 54.2266 132.113 56.7866C95.1226 59.3466 93.2225 4.26656 126.283 0.276564Z" fill="#2F2F2F"></path>
</svg><style>@media (prefers-color-scheme: light) { :root { filter: none; } }
@media (prefers-color-scheme: dark) { :root { filter: none; } }
</style></svg>