<svg width="126" height="126" viewBox="0 0 126 126" fill="none" xmlns="http://www.w3.org/2000/svg">
<g clip-path="url(#clip0_254_569)">
<path d="M63 0.5H0.5V125.5H63C80.2587 125.5 95.8829 118.505 107.194 107.194C118.505 95.8829 125.5 80.2587 125.5 63C125.5 28.4826 97.5174 0.5 63 0.5ZM63 109.493C37.3227 109.493 16.5071 88.6773 16.5071 63C16.5071 37.3227 37.3227 16.5071 63 16.5071C88.6773 16.5071 109.493 37.3227 109.493 63C109.493 88.6773 88.6773 109.493 63 109.493Z" fill="white"/>
<path fill-rule="evenodd" clip-rule="evenodd" d="M33.4312 56.1499L27.8489 62.9195L33.4312 69.6891L31.3318 78.2107L39.3064 81.8754L41.113 90.4645L49.8872 90.3214L55.2411 97.276L63.0805 93.3249L70.92 97.276L76.2739 90.3214L85.048 90.4645L86.8547 81.877L94.8292 78.2107L92.7298 69.6891L98.3122 62.9195L92.7298 56.1499L94.8292 47.6283L86.8547 43.9636L85.048 35.3744L76.2739 35.5176L70.92 28.563L63.0805 32.5141L55.2411 28.563L49.8872 35.5176L41.113 35.3744L39.3064 43.962L31.3318 47.6283L33.4312 56.1499ZM71.6079 48.8448L73.2574 47.1953C75.4563 44.9964 79.0214 44.9964 81.2203 47.1953C83.4192 49.3942 83.4192 52.9594 81.2203 55.1583L79.5708 56.8077C77.3719 59.0066 73.8068 59.0066 71.6079 56.8077C69.409 54.6088 69.409 51.0437 71.6079 48.8448Z" fill="white"/>
</g>
<defs>
<clipPath id="clip0_254_569">
<rect width="125" height="125" fill="white" transform="translate(0.5 0.5)"/>
</clipPath>
</defs>
</svg>
